grf
version=1
nRows=9
nColumns=37
inDegrees=no
endheader
time	ground_force_1_vx	ground_force_1_vy	ground_force_1_vz	ground_force_1_px	ground_force_1_py	ground_force_1_pz	ground_moment_1_mx	ground_moment_1_my	ground_moment_1_mz	ground_force_2_vx	ground_force_2_vy	ground_force_2_vz	ground_force_2_px	ground_force_2_py	ground_force_2_pz	ground_moment_2_mx	ground_moment_2_my	ground_moment_2_mz	ground_force_3_vx	ground_force_3_vy	ground_force_3_vz	ground_force_3_px	ground_force_3_py	ground_force_3_pz	ground_moment_3_mx	ground_moment_3_my	ground_moment_3_mz	ground_force_4_vx	ground_force_4_vy	ground_force_4_vz	ground_force_4_px	ground_force_4_py	ground_force_4_pz	ground_moment_4_mx	ground_moment_4_my	ground_moment_4_mz
      5.52000000	      0.00000000	     -0.00000000	      0.00000000	      0.00000000	      0.00000000	      0.00000000	      0.00000000	      0.00000000	      0.00000000	   -150.73611450	     75.73268890	   -936.53088379	   -272.29678961	  -1064.46987361	      0.00000000	      0.00000000	      0.00000000	  14104.01953998	    -34.32625921	    -82.64410863	  -1121.81604004	   -279.21323671	   -702.25732601	      0.00000000	      0.00000000	     -0.00000000	  -8949.46017905	      0.00000000	     -0.00000000	      0.00000000	      0.00000000	      0.00000000	      0.00000000	      0.00000000	      0.00000000	      0.00000000
      5.53000000	      0.00000000	     -0.00000000	      0.00000000	      0.00000000	      0.00000000	      0.00000000	      0.00000000	      0.00000000	      0.00000000	    -37.50530243	     45.13435364	  -1016.49328613	   -283.29263744	  -1061.36512462	      0.00000000	      0.00000000	      0.00000000	  14385.26984779	     49.91347848	    -91.46307809	  -1136.67053223	   -283.11939693	   -700.68997555	      0.00000000	      0.00000000	     -0.00000000	  -6844.92953801	      0.00000000	     -0.00000000	      0.00000000	      0.00000000	      0.00000000	      0.00000000	      0.00000000	      0.00000000	      0.00000000
      5.54000000	      0.00000000	     -0.00000000	      0.00000000	      0.00000000	      0.00000000	      0.00000000	      0.00000000	      0.00000000	      0.00000000	    -25.01875687	     61.99515533	  -1055.69409180	   -282.70639017	  -1063.60377191	      0.00000000	      0.00000000	      0.00000000	  12695.49182076	     51.12240960	   -133.42087239	  -1065.49072266	   -277.81861561	   -694.16535819	      0.00000000	      0.00000000	     -0.00000000	  -5211.66159948	      0.00000000	     -0.00000000	      0.00000000	      0.00000000	      0.00000000	      0.00000000	      0.00000000	      0.00000000	      0.00000000
      5.55000000	      0.00000000	     -0.00000000	      0.00000000	      0.00000000	      0.00000000	      0.00000000	      0.00000000	      0.00000000	      0.00000000	    -50.89617157	    105.00399780	  -1008.36608887	   -275.48959916	  -1068.14389928	      0.00000000	      0.00000000	      0.00000000	  11407.29072953	     31.07558071	   -107.76465115	  -1000.11749268	   -271.54873125	   -693.06114771	      0.00000000	      0.00000000	     -0.00000000	  -6698.26017458	      0.00000000	     -0.00000000	      0.00000000	      0.00000000	      0.00000000	      0.00000000	      0.00000000	      0.00000000	      0.00000000
      5.56000000	      0.00000000	     -0.00000000	      0.00000000	      0.00000000	      0.00000000	      0.00000000	      0.00000000	      0.00000000	      0.00000000	    -47.85693359	     79.10075378	  -1005.66204834	   -274.63742444	  -1066.17391780	      0.00000000	      0.00000000	      0.00000000	  14871.24590984	     -4.34887223	   -104.17172203	   -942.43481445	   -265.16729041	   -691.86205574	      0.00000000	      0.00000000	     -0.00000000	  -7702.51623882	      0.00000000	     -0.00000000	      0.00000000	      0.00000000	      0.00000000	      0.00000000	      0.00000000	      0.00000000	      0.00000000
      5.57000000	      0.00000000	     -0.00000000	      0.00000000	      0.00000000	      0.00000000	      0.00000000	      0.00000000	      0.00000000	      0.00000000	    -45.45077515	     67.52365875	   -977.14764404	   -273.14143332	  -1065.92969057	      0.00000000	      0.00000000	      0.00000000	  16530.72719560	    -22.83779148	   -109.51849166	   -885.17871094	   -259.50025428	   -689.63153981	      0.00000000	      0.00000000	     -0.00000000	  -7970.62770465	      0.00000000	     -0.00000000	      0.00000000	      0.00000000	      0.00000000	      0.00000000	      0.00000000	      0.00000000	      0.00000000
      5.58000000	      0.00000000	     -0.00000000	      0.00000000	      0.00000000	      0.00000000	      0.00000000	      0.00000000	      0.00000000	      0.00000000	    -60.26137543	     79.27749634	   -927.46759033	   -268.83861379	  -1068.84073012	      0.00000000	     -0.00000000	      0.00000000	  15188.11793872	    -18.48089045	   -111.11937552	   -839.48107910	   -256.96072807	   -687.51282042	      0.00000000	      0.00000000	     -0.00000000	  -8097.57800274	      0.00000000	     -0.00000000	      0.00000000	      0.00000000	      0.00000000	      0.00000000	      0.00000000	      0.00000000	      0.00000000
      5.59000000	      0.00000000	     -0.00000000	      0.00000000	      0.00000000	      0.00000000	      0.00000000	      0.00000000	      0.00000000	      0.00000000	    -73.66204071	     80.25817871	   -883.00097656	   -265.47148452	  -1070.32735600	      0.00000000	      0.00000000	      0.00000000	  14154.74778606	    -14.92343276	   -102.88881553	   -807.78985596	   -255.74254222	   -687.10533496	      0.00000000	      0.00000000	     -0.00000000	  -8641.78370776	      0.00000000	     -0.00000000	      0.00000000	      0.00000000	      0.00000000	      0.00000000	      0.00000000	      0.00000000	      0.00000000
      5.60000000	      0.00000000	     -0.00000000	      0.00000000	      0.00000000	      0.00000000	      0.00000000	      0.00000000	      0.00000000	      0.00000000	    -80.81832886	     72.79196167	   -845.86596680	   -264.05304868	  -1070.58836794	      0.00000000	      0.00000000	      0.00000000	  14285.80296470	    -13.80687930	    -90.17189668	   -787.13171387	   -256.22570490	   -688.60105346	      0.00000000	      0.00000000	     -0.00000000	  -9096.91768350	      0.00000000	     -0.00000000	      0.00000000	      0.00000000	      0.00000000	      0.00000000	      0.00000000	      0.00000000	      0.00000000
